<svg width="23" height="33" viewBox="0 0 23 33" fill="none" xmlns="http://www.w3.org/2000/svg">
<g clip-path="url(#clip0_60_615)">
<path d="M11.524 0C5.13779 0 0 5.11739 0 11.4783C0 12.5783 0.14405 13.6304 0.43215 14.6348C0.624217 15.2565 0.816284 15.8783 1.10438 16.4043C3.4572 20.7087 11.476 33.0478 11.476 33.0478C11.476 33.0478 19.4948 20.7087 21.8476 16.4043C22.1357 15.8304 22.3278 15.2565 22.5198 14.6348C22.8079 13.6304 22.952 12.5783 22.952 11.4783C22.952 5.16522 17.8142 0 11.428 0H11.524ZM11.524 16.5C9.93946 16.5 8.49896 15.7348 7.53862 14.587C6.86639 13.7261 6.43424 12.6261 6.43424 11.4304C6.43424 8.65652 8.69102 6.4087 11.476 6.4087C14.261 6.4087 16.5177 8.65652 16.5177 11.4304C16.5177 12.6261 16.0856 13.7261 15.4134 14.587C14.501 15.7348 13.0605 16.5 11.428 16.5H11.524Z" fill="#DC6B19"/>
</g>
<defs>
<clipPath id="clip0_60_615">
<rect width="23" height="33" fill="white"/>
</clipPath>
</defs>
</svg>
